<?xml version="1.0" encoding="UTF-8"?><svg xmlns="http://www.w3.org/2000/svg" width="2000" height="1200" viewBox="0 0 2000 1200" role="img"><title>MOBA-Module Soundmodul – Verdrahtungsplan</title><style>text{font-family:Arial,Helvetica,sans-serif;fill:#1b1f23}.h{font-weight:700}.small{font-size:15px}.pin{font-size:17px;font-weight:700}.wire{fill:none;stroke-width:4}.thin{stroke-width:3}.box{fill:#f6f8fa;stroke:#1b1f23;stroke-width:3}.note{fill:#fff;stroke-width:2.5}.node{stroke:#1b1f23;stroke-width:2;fill:#fff}</style><rect width="2000" height="1200" fill="#fff"/><text x="1000" y="48" text-anchor="middle" font-size="36" class="h">MOBA-Module Soundmodul – Verdrahtungsplan</text><text x="1000" y="78" text-anchor="middle" font-size="18" fill="#5f6870">Arduino Nano (ATmega328P) + JQ6500-16P · Version 1.0.0</text><rect x="560" y="130" width="420" height="650" rx="3" class="box"/><text x="770" y="172" text-anchor="middle" font-size="28" class="h">Arduino Nano</text><text x="770" y="198" text-anchor="middle" font-size="16" fill="#5f6870">ATmega328P</text><rect x="700" y="230" width="140" height="460" rx="8" fill="#156b9b" stroke="#0c4f75" stroke-width="3"/><text x="770" y="275" text-anchor="middle" font-size="20" class="h" fill="#fff">NANO</text><rect x="1290" y="130" width="360" height="650" rx="3" class="box"/><text x="1470" y="172" text-anchor="middle" font-size="28" class="h">JQ6500-16P</text><text x="1470" y="198" text-anchor="middle" font-size="16" fill="#5f6870">internal flash · UART</text><rect x="1400" y="230" width="140" height="460" rx="8" fill="#156b9b" stroke="#0c4f75" stroke-width="3"/><text x="1470" y="275" text-anchor="middle" font-size="18" class="h" fill="#fff">JQ6500</text><circle cx="980" cy="300" r="7" class="node"/><text x="960" y="306" text-anchor="end" class="pin" fill="#007c91">D10</text><circle cx="1290" cy="300" r="7" class="node"/><text x="1310" y="306" class="pin" fill="#007c91">10 TX</text><line x1="980" y1="300" x2="1290" y2="300" stroke="#007c91" class="wire"/><text x="1135" y="274" text-anchor="middle" font-size="15" class="h" fill="#007c91">JQ6500 TX → Nano D10</text><circle cx="980" cy="390" r="7" class="node"/><text x="960" y="396" text-anchor="end" class="pin" fill="#7b2cbf">D11</text><circle cx="1290" cy="390" r="7" class="node"/><text x="1310" y="396" class="pin" fill="#7b2cbf">9 RX</text><line x1="980" y1="390" x2="1060" y2="390" stroke="#7b2cbf" class="wire"/><rect x="1060" y="374" width="150" height="32" fill="#fff" stroke="#7b2cbf" stroke-width="3"/><text x="1135" y="396" text-anchor="middle" font-size="16" class="h" fill="#7b2cbf">R1 1 kΩ</text><line x1="1210" y1="390" x2="1290" y2="390" stroke="#7b2cbf" class="wire"/><text x="1135" y="364" text-anchor="middle" font-size="15" class="h" fill="#7b2cbf">Nano D11 → R1 1 kΩ → JQ6500 RX</text><circle cx="980" cy="480" r="7" class="node"/><text x="960" y="486" text-anchor="end" class="pin" fill="#218739">A2</text><circle cx="1290" cy="480" r="7" class="node"/><text x="1310" y="486" class="pin" fill="#218739">8 BUSY</text><line x1="980" y1="480" x2="1060" y2="480" stroke="#218739" class="wire"/><rect x="1060" y="464" width="150" height="32" fill="#fff" stroke="#218739" stroke-width="3"/><text x="1135" y="486" text-anchor="middle" font-size="16" class="h" fill="#218739">R2 1 kΩ</text><line x1="1210" y1="480" x2="1290" y2="480" stroke="#218739" class="wire"/><text x="1135" y="454" text-anchor="middle" font-size="15" class="h" fill="#218739">JQ6500 BUSY → R2 1 kΩ → Nano A2</text><circle cx="980" cy="600" r="7" class="node"/><text x="960" y="606" text-anchor="end" class="pin" fill="#b3261e">5V</text><circle cx="1290" cy="600" r="7" class="node"/><text x="1310" y="606" class="pin" fill="#b3261e">12 DC-5V</text><line x1="980" y1="600" x2="1290" y2="600" stroke="#b3261e" class="wire"/><circle cx="980" cy="680" r="7" class="node"/><text x="960" y="686" text-anchor="end" class="pin">GND</text><circle cx="1290" cy="660" r="7" class="node"/><text x="1310" y="666" class="pin">11 GND</text><circle cx="1290" cy="720" r="7" class="node"/><text x="1310" y="726" class="pin">6 SGND</text><path d="M980 680 H1190 V660 H1290 M1190 680 V720 H1290" stroke="#1b1f23" class="wire"/><text x="1135" y="645" text-anchor="middle" font-size="16" class="h">Gemeinsame 5-V-Versorgung und GND</text><circle cx="980" cy="745" r="7" class="node"/><text x="960" y="751" text-anchor="end" class="pin" fill="#5f6870">A3</text><text x="770" y="740" text-anchor="middle" font-size="14" fill="#5f6870">A3 bleibt unbeschaltet (Zufallsquelle)</text><text x="1810" y="190" text-anchor="middle" font-size="24" class="h">Lautsprecher 8 Ω / 1–3 W</text><rect x="1740" y="245" width="105" height="110" fill="#fff" stroke="#1b1f23" stroke-width="3"/><polygon points="1845,265 1880,265 1930,225 1930,375 1880,335 1845,335" fill="#fff" stroke="#1b1f23" stroke-width="3"/><circle cx="1650" cy="300" r="7" class="node"/><text x="1630" y="306" text-anchor="end" class="pin" fill="#d66a00">16 SPK+</text><circle cx="1650" cy="390" r="7" class="node"/><text x="1630" y="396" text-anchor="end" class="pin" fill="#7a4b20">15 SPK−</text><path d="M1650 300 H1710 V275 H1740" stroke="#d66a00" class="wire"/><path d="M1650 390 H1710 V325 H1740" stroke="#7a4b20" class="wire"/><rect x="1680" y="445" width="285" height="82" rx="3" fill="#fff5f4" stroke="#b3261e" stroke-width="2.5"/><text x="1695" y="475" font-size="17" class="h" fill="#b3261e">WARNING</text><text x="1695" y="502" font-size="14">SPK+ und SPK− niemals mit GND verbinden.</text><text x="270" y="140" text-anchor="middle" font-size="25" class="h">10 getrennte Hardwareeingänge</text><text x="270" y="168" text-anchor="middle" font-size="15" fill="#5f6870">INPUT_PULLUP: aktiv bei Verbindung gegen GND</text><line x1="35" y1="220" x2="35" y2="760" stroke="#1b1f23" class="wire"/><text x="75" y="226" class="pin" fill="#1565c0">IN1</text><line x1="35" y1="220" x2="125" y2="220" stroke="#1b1f23" class="thin"/><circle cx="145" cy="220" r="4" fill="#1b1f23"/><circle cx="215" cy="220" r="4" fill="#1b1f23"/><line x1="145" y1="220" x2="208" y2="205" stroke="#1b1f23" class="thin"/><line x1="215" y1="220" x2="560" y2="220" stroke="#1565c0" class="thin"/><circle cx="560" cy="220" r="7" class="node"/><text x="578" y="226" class="pin" fill="#1565c0">D2</text><text x="75" y="278" class="pin" fill="#1565c0">IN2</text><line x1="35" y1="272" x2="125" y2="272" stroke="#1b1f23" class="thin"/><circle cx="145" cy="272" r="4" fill="#1b1f23"/><circle cx="215" cy="272" r="4" fill="#1b1f23"/><line x1="145" y1="272" x2="208" y2="257" stroke="#1b1f23" class="thin"/><line x1="215" y1="272" x2="560" y2="272" stroke="#1565c0" class="thin"/><circle cx="560" cy="272" r="7" class="node"/><text x="578" y="278" class="pin" fill="#1565c0">D3</text><text x="75" y="330" class="pin" fill="#1565c0">IN3</text><line x1="35" y1="324" x2="125" y2="324" stroke="#1b1f23" class="thin"/><circle cx="145" cy="324" r="4" fill="#1b1f23"/><circle cx="215" cy="324" r="4" fill="#1b1f23"/><line x1="145" y1="324" x2="208" y2="309" stroke="#1b1f23" class="thin"/><line x1="215" y1="324" x2="560" y2="324" stroke="#1565c0" class="thin"/><circle cx="560" cy="324" r="7" class="node"/><text x="578" y="330" class="pin" fill="#1565c0">D4</text><text x="75" y="382" class="pin" fill="#1565c0">IN4</text><line x1="35" y1="376" x2="125" y2="376" stroke="#1b1f23" class="thin"/><circle cx="145" cy="376" r="4" fill="#1b1f23"/><circle cx="215" cy="376" r="4" fill="#1b1f23"/><line x1="145" y1="376" x2="208" y2="361" stroke="#1b1f23" class="thin"/><line x1="215" y1="376" x2="560" y2="376" stroke="#1565c0" class="thin"/><circle cx="560" cy="376" r="7" class="node"/><text x="578" y="382" class="pin" fill="#1565c0">D5</text><text x="75" y="434" class="pin" fill="#1565c0">IN5</text><line x1="35" y1="428" x2="125" y2="428" stroke="#1b1f23" class="thin"/><circle cx="145" cy="428" r="4" fill="#1b1f23"/><circle cx="215" cy="428" r="4" fill="#1b1f23"/><line x1="145" y1="428" x2="208" y2="413" stroke="#1b1f23" class="thin"/><line x1="215" y1="428" x2="560" y2="428" stroke="#1565c0" class="thin"/><circle cx="560" cy="428" r="7" class="node"/><text x="578" y="434" class="pin" fill="#1565c0">D6</text><text x="75" y="486" class="pin" fill="#1565c0">IN6</text><line x1="35" y1="480" x2="125" y2="480" stroke="#1b1f23" class="thin"/><circle cx="145" cy="480" r="4" fill="#1b1f23"/><circle cx="215" cy="480" r="4" fill="#1b1f23"/><line x1="145" y1="480" x2="208" y2="465" stroke="#1b1f23" class="thin"/><line x1="215" y1="480" x2="560" y2="480" stroke="#1565c0" class="thin"/><circle cx="560" cy="480" r="7" class="node"/><text x="578" y="486" class="pin" fill="#1565c0">D7</text><text x="75" y="538" class="pin" fill="#1565c0">IN7</text><line x1="35" y1="532" x2="125" y2="532" stroke="#1b1f23" class="thin"/><circle cx="145" cy="532" r="4" fill="#1b1f23"/><circle cx="215" cy="532" r="4" fill="#1b1f23"/><line x1="145" y1="532" x2="208" y2="517" stroke="#1b1f23" class="thin"/><line x1="215" y1="532" x2="560" y2="532" stroke="#1565c0" class="thin"/><circle cx="560" cy="532" r="7" class="node"/><text x="578" y="538" class="pin" fill="#1565c0">D8</text><text x="75" y="590" class="pin" fill="#1565c0">IN8</text><line x1="35" y1="584" x2="125" y2="584" stroke="#1b1f23" class="thin"/><circle cx="145" cy="584" r="4" fill="#1b1f23"/><circle cx="215" cy="584" r="4" fill="#1b1f23"/><line x1="145" y1="584" x2="208" y2="569" stroke="#1b1f23" class="thin"/><line x1="215" y1="584" x2="560" y2="584" stroke="#1565c0" class="thin"/><circle cx="560" cy="584" r="7" class="node"/><text x="578" y="590" class="pin" fill="#1565c0">D9</text><text x="75" y="642" class="pin" fill="#1565c0">IN9</text><line x1="35" y1="636" x2="125" y2="636" stroke="#1b1f23" class="thin"/><circle cx="145" cy="636" r="4" fill="#1b1f23"/><circle cx="215" cy="636" r="4" fill="#1b1f23"/><line x1="145" y1="636" x2="208" y2="621" stroke="#1b1f23" class="thin"/><line x1="215" y1="636" x2="560" y2="636" stroke="#1565c0" class="thin"/><circle cx="560" cy="636" r="7" class="node"/><text x="578" y="642" class="pin" fill="#1565c0">A0</text><text x="75" y="694" class="pin" fill="#1565c0">IN10</text><line x1="35" y1="688" x2="125" y2="688" stroke="#1b1f23" class="thin"/><circle cx="145" cy="688" r="4" fill="#1b1f23"/><circle cx="215" cy="688" r="4" fill="#1b1f23"/><line x1="145" y1="688" x2="208" y2="673" stroke="#1b1f23" class="thin"/><line x1="215" y1="688" x2="560" y2="688" stroke="#1565c0" class="thin"/><circle cx="560" cy="688" r="7" class="node"/><text x="578" y="694" class="pin" fill="#1565c0">A1</text><line x1="35" y1="760" x2="35" y2="790" stroke="#1b1f23" class="thin"/><line x1="15" y1="790" x2="55" y2="790" stroke="#1b1f23" class="thin"/><line x1="23" y1="800" x2="47" y2="800" stroke="#1b1f23" class="thin"/><rect x="35" y="850" width="430" height="115" rx="3" fill="#f1f8ff" stroke="#1565c0" stroke-width="2.5"/><text x="50" y="880" font-size="17" class="h" fill="#1565c0">INPUT_PULLUP</text><text x="50" y="910" font-size="14">INPUT_PULLUP: aktiv bei Verbindung gegen GND</text><rect x="485" y="850" width="430" height="115" rx="3" fill="#fff9e8" stroke="#a06400" stroke-width="2.5"/><text x="500" y="880" font-size="17" class="h" fill="#a06400">GND</text><text x="500" y="910" font-size="14">Gemeinsame 5-V-Versorgung und GND</text><rect x="935" y="850" width="430" height="115" rx="3" fill="#f2fbf4" stroke="#218739" stroke-width="2.5"/><text x="950" y="880" font-size="17" class="h" fill="#218739">R1 / R2</text><text x="950" y="910" font-size="14">R1 und R2 sind zwei getrennte 1-kΩ-Widerstände.</text><rect x="1385" y="850" width="580" height="115" rx="3" fill="#fff5f4" stroke="#b3261e" stroke-width="2.5"/><text x="1400" y="880" font-size="17" class="h" fill="#b3261e">SPK</text><text x="1400" y="910" font-size="14">SPK+ und SPK− niemals mit GND verbinden.</text><text x="35" y="1025" font-size="17" class="h">Wire colours:</text><line x1="160" y1="1018" x2="198" y2="1018" stroke="#b3261e" class="wire"/><text x="208" y="1025" font-size="13">5 V</text><line x1="405" y1="1018" x2="443" y2="1018" stroke="#1b1f23" class="wire"/><text x="453" y="1025" font-size="13">GND</text><line x1="650" y1="1018" x2="688" y2="1018" stroke="#1565c0" class="wire"/><text x="698" y="1025" font-size="13">IN1–IN10</text><line x1="895" y1="1018" x2="933" y2="1018" stroke="#007c91" class="wire"/><text x="943" y="1025" font-size="13">TX→D10</text><line x1="1140" y1="1018" x2="1178" y2="1018" stroke="#7b2cbf" class="wire"/><text x="1188" y="1025" font-size="13">D11→RX / R1</text><line x1="1385" y1="1018" x2="1423" y2="1018" stroke="#218739" class="wire"/><text x="1433" y="1025" font-size="13">BUSY→A2 / R2</text><line x1="1630" y1="1018" x2="1668" y2="1018" stroke="#d66a00" class="wire"/><text x="1678" y="1025" font-size="13">SPK</text><text x="1000" y="1145" text-anchor="middle" font-size="13" fill="#5f6870">Verbindliche Netzliste: NETLIST.md · Copyright (c) 2026 Sven Häber · MIT-Dokumentation; Markenassets ausgenommen.</text></svg>